<svg width="1236" height="577" viewBox="0 0 1236 577" fill="none" xmlns="http://www.w3.org/2000/svg">
<g filter="url(#filter0_dd_571_138378)">
<path d="M397.741 371.603V96.9313H313.674L242.004 282.499L166.459 96.9313H86.6535V371.603H144.765V191.846L216.435 371.603H266.023L337.693 189.521V371.603H397.741ZM482.685 234.073C482.685 176.737 523.75 150.781 562.103 150.781C600.069 150.781 641.134 176.737 641.134 234.073C641.134 291.409 600.069 316.978 562.103 316.978C523.75 316.978 482.685 291.409 482.685 234.073ZM419.15 234.461C419.15 321.24 484.622 377.414 562.103 377.414C639.197 377.414 704.669 321.24 704.669 234.461C704.669 147.294 639.197 91.1202 562.103 91.1202C484.622 91.1202 419.15 147.294 419.15 234.461ZM775.96 256.93V371.603H837.17V256.93L933.634 96.9313H865.451L808.502 198.819L752.328 96.9313H680.658L775.96 256.93ZM973.258 234.073C973.258 176.737 1014.32 150.781 1052.68 150.781C1090.64 150.781 1131.71 176.737 1131.71 234.073C1131.71 291.409 1090.64 316.978 1052.68 316.978C1014.32 316.978 973.258 291.409 973.258 234.073ZM909.723 234.461C909.723 321.24 975.195 377.414 1052.68 377.414C1129.77 377.414 1195.24 321.24 1195.24 234.461C1195.24 147.294 1129.77 91.1202 1052.68 91.1202C975.195 91.1202 909.723 147.294 909.723 234.461Z" fill="white"/>
<path d="M397.741 371.603V375.603H401.741V371.603H397.741ZM397.741 96.9313H401.741V92.9313H397.741V96.9313ZM313.674 96.9313V92.9313H310.931L309.942 95.4902L313.674 96.9313ZM242.004 282.499L238.299 284.007L242.101 293.348L245.735 283.94L242.004 282.499ZM166.459 96.9313L170.164 95.4231L169.15 92.9313H166.459V96.9313ZM86.6535 96.9313V92.9313H82.6535V96.9313H86.6535ZM86.6535 371.603H82.6535V375.603H86.6535V371.603ZM144.765 371.603V375.603H148.765V371.603H144.765ZM144.765 191.846L148.48 190.365L140.765 191.846H144.765ZM216.435 371.603L212.719 373.084L213.723 375.603H216.435V371.603ZM266.023 371.603V375.603H268.747L269.745 373.068L266.023 371.603ZM337.693 189.521H341.693L333.971 188.056L337.693 189.521ZM337.693 371.603H333.693V375.603H337.693V371.603ZM401.741 371.603V96.9313H393.741V371.603H401.741ZM397.741 92.9313H313.674V100.931H397.741V92.9313ZM309.942 95.4902L238.272 281.058L245.735 283.94L317.405 98.3725L309.942 95.4902ZM245.708 280.991L170.164 95.4231L162.755 98.4395L238.299 284.007L245.708 280.991ZM166.459 92.9313H86.6535V100.931H166.459V92.9313ZM82.6535 96.9313V371.603H90.6535V96.9313H82.6535ZM86.6535 375.603H144.765V367.603H86.6535V375.603ZM148.765 371.603V191.846H140.765V371.603H148.765ZM141.049 193.327L212.719 373.084L220.15 370.121L148.48 190.365L141.049 193.327ZM216.435 375.603H266.023V367.603H216.435V375.603ZM269.745 373.068L341.415 190.987L333.971 188.056L262.301 370.137L269.745 373.068ZM333.693 189.521V371.603H341.693V189.521H333.693ZM337.693 375.603H397.741V367.603H337.693V375.603ZM486.685 234.073C486.685 206.438 496.543 186.725 510.699 173.889C524.93 160.984 543.787 154.781 562.103 154.781V146.781C542.066 146.781 521.214 153.555 505.325 167.963C489.359 182.439 478.685 204.373 478.685 234.073H486.685ZM562.103 154.781C580.217 154.781 598.977 160.979 613.164 173.885C627.276 186.722 637.134 206.437 637.134 234.073H645.134C645.134 204.373 634.46 182.442 618.548 167.967C602.711 153.561 581.956 146.781 562.103 146.781V154.781ZM637.134 234.073C637.134 261.707 627.277 281.321 613.175 294.058C598.993 306.867 580.232 312.978 562.103 312.978V320.978C581.94 320.978 602.695 314.305 618.537 299.995C634.459 285.615 645.134 263.775 645.134 234.073H637.134ZM562.103 312.978C543.772 312.978 524.914 306.862 510.688 294.054C496.541 281.318 486.685 261.707 486.685 234.073H478.685C478.685 263.775 489.361 285.618 505.335 299.999C521.23 314.31 542.081 320.978 562.103 320.978V312.978ZM415.15 234.461C415.15 323.619 482.587 381.414 562.103 381.414V373.414C486.657 373.414 423.15 318.86 423.15 234.461H415.15ZM562.103 381.414C641.24 381.414 708.669 323.612 708.669 234.461H700.669C700.669 318.867 637.155 373.414 562.103 373.414V381.414ZM708.669 234.461C708.669 144.929 641.247 87.1202 562.103 87.1202V95.1202C637.147 95.1202 700.669 149.659 700.669 234.461H708.669ZM562.103 87.1202C482.579 87.1202 415.15 144.922 415.15 234.461H423.15C423.15 149.666 486.665 95.1202 562.103 95.1202V87.1202ZM775.96 256.93H779.96V255.829L779.396 254.883L775.96 256.93ZM775.96 371.603H771.96V375.603H775.96V371.603ZM837.17 371.603V375.603H841.17V371.603H837.17ZM837.17 256.93L833.745 254.865L833.17 255.818V256.93H837.17ZM933.634 96.9313L937.06 98.9966L940.717 92.9313H933.634V96.9313ZM865.451 96.9313V92.9313H863.104L861.959 94.9798L865.451 96.9313ZM808.502 198.819L804.999 200.751L808.478 207.061L811.994 200.771L808.502 198.819ZM752.328 96.9313L755.831 95.0001L754.69 92.9313H752.328V96.9313ZM680.658 96.9313V92.9313H673.62L677.221 98.9783L680.658 96.9313ZM771.96 256.93V371.603H779.96V256.93H771.96ZM775.96 375.603H837.17V367.603H775.96V375.603ZM841.17 371.603V256.93H833.17V371.603H841.17ZM840.596 258.996L937.06 98.9966L930.209 94.866L833.745 254.865L840.596 258.996ZM933.634 92.9313H865.451V100.931H933.634V92.9313ZM861.959 94.9798L805.01 196.868L811.994 200.771L868.942 98.8829L861.959 94.9798ZM812.005 196.888L755.831 95.0001L748.825 98.8626L804.999 200.751L812.005 196.888ZM752.328 92.9313H680.658V100.931H752.328V92.9313ZM677.221 98.9783L772.523 258.977L779.396 254.883L684.095 94.8844L677.221 98.9783ZM977.258 234.073C977.258 206.438 987.116 186.725 1001.27 173.889C1015.5 160.984 1034.36 154.781 1052.68 154.781V146.781C1032.64 146.781 1011.79 153.555 995.898 167.963C979.932 182.439 969.258 204.373 969.258 234.073H977.258ZM1052.68 154.781C1070.79 154.781 1089.55 160.979 1103.74 173.885C1117.85 186.722 1127.71 206.437 1127.71 234.073H1135.71C1135.71 204.373 1125.03 182.442 1109.12 167.967C1093.28 153.561 1072.53 146.781 1052.68 146.781V154.781ZM1127.71 234.073C1127.71 261.707 1117.85 281.321 1103.75 294.058C1089.57 306.867 1070.81 312.978 1052.68 312.978V320.978C1072.51 320.978 1093.27 314.305 1109.11 299.995C1125.03 285.615 1135.71 263.775 1135.71 234.073H1127.71ZM1052.68 312.978C1034.35 312.978 1015.49 306.862 1001.26 294.054C987.114 281.318 977.258 261.707 977.258 234.073H969.258C969.258 263.775 979.934 285.618 995.908 299.999C1011.8 314.31 1032.65 320.978 1052.68 320.978V312.978ZM905.723 234.461C905.723 323.619 973.16 381.414 1052.68 381.414V373.414C977.23 373.414 913.723 318.86 913.723 234.461H905.723ZM1052.68 381.414C1131.81 381.414 1199.24 323.612 1199.24 234.461H1191.24C1191.24 318.867 1127.73 373.414 1052.68 373.414V381.414ZM1199.24 234.461C1199.24 144.929 1131.82 87.1202 1052.68 87.1202V95.1202C1127.72 95.1202 1191.24 149.659 1191.24 234.461H1199.24ZM1052.68 87.1202C973.152 87.1202 905.723 144.922 905.723 234.461H913.723C913.723 149.666 977.238 95.1202 1052.68 95.1202V87.1202Z" fill="url(#paint0_angular_571_138378)"/>
</g>
<mask id="path-3-inside-1_571_138378" fill="white">
<path d="M112.898 516.014V445.23H128.743C147.515 445.23 162.843 456.252 162.843 480.708C162.843 505.164 147.515 516.014 128.743 516.014H112.898ZM129.776 541.675C166.632 541.675 191.26 518.425 191.26 480.708C191.26 442.991 166.632 419.568 129.948 419.568H85.6865V541.675H129.776Z"/>
<path d="M222.949 488.63C223.465 482.258 228.976 474.163 239.999 474.163C252.399 474.163 256.877 482.086 257.221 488.63H222.949ZM259.116 510.847C256.705 517.564 251.366 522.042 241.893 522.042C231.732 522.042 222.949 515.153 222.432 505.508H282.022C282.194 504.992 282.538 501.03 282.538 497.414C282.538 469.858 266.177 453.496 239.654 453.496C217.437 453.496 196.943 471.063 196.943 498.619C196.943 527.381 217.954 544.259 241.549 544.259C263.249 544.259 276.855 531.859 280.988 517.047L259.116 510.847Z"/>
<path d="M285.659 517.392C286.348 526.864 294.959 544.259 321.826 544.259C344.732 544.259 355.926 529.964 355.926 515.325C355.926 502.753 347.315 492.075 329.576 488.458L318.209 486.219C314.42 485.53 311.492 483.463 311.492 479.847C311.492 475.369 315.798 472.441 320.793 472.441C328.715 472.441 332.332 477.263 333.02 482.947L354.721 478.986C353.86 468.997 345.248 453.496 320.448 453.496C301.331 453.496 287.553 466.241 287.553 481.913C287.553 493.969 294.787 504.303 313.042 508.264L322.859 510.503C329.232 511.881 331.298 514.464 331.298 517.564C331.298 521.353 328.026 524.97 321.309 524.97C312.353 524.97 308.22 519.286 307.876 513.431L285.659 517.392Z"/>
<path d="M392.497 541.675V456.08H366.319V541.675H392.497ZM364.08 429.901C364.08 438.341 370.969 445.23 379.236 445.23C387.847 445.23 394.736 438.341 394.736 429.901C394.736 421.462 387.847 414.573 379.236 414.573C370.969 414.573 364.08 421.462 364.08 429.901Z"/>
<path d="M402.776 546.498C405.187 561.826 420.859 576.982 445.488 576.982C477.521 576.982 491.299 555.626 491.299 530.997V456.08H466.327V465.208C463.916 460.73 456.51 454.53 442.56 454.53C419.137 454.53 402.776 473.819 402.776 496.38C402.776 520.147 419.826 538.059 442.56 538.059C454.96 538.059 462.366 533.064 465.466 528.414V532.375C465.466 547.876 457.371 554.248 444.282 554.248C434.465 554.248 427.576 548.22 425.854 539.953L402.776 546.498ZM447.382 515.325C436.876 515.325 428.954 508.092 428.954 496.38C428.954 484.669 437.565 477.436 447.382 477.436C457.199 477.436 465.638 484.669 465.638 496.38C465.638 508.092 458.06 515.325 447.382 515.325Z"/>
<path d="M532.968 492.591C532.968 483.98 538.48 477.608 547.091 477.608C556.563 477.608 561.041 483.98 561.041 492.419V541.675H587.219V487.941C587.219 469.169 577.575 453.841 556.047 453.841C547.263 453.841 536.757 457.802 532.107 465.896V456.08H506.79V541.675H532.968V492.591Z"/>
<path d="M724.115 449.535C721.532 435.24 709.993 416.985 679.509 416.985C656.087 416.985 635.764 433.174 635.764 456.252C635.764 474.336 648.337 488.113 669.004 492.075L685.709 495.175C693.804 496.725 698.798 501.203 698.798 507.403C698.798 514.981 692.254 520.147 681.576 520.147C664.87 520.147 657.292 510.331 656.259 499.136L631.286 505.164C633.008 522.386 647.475 544.259 681.232 544.259C710.338 544.259 726.354 524.797 726.354 505.68C726.354 488.286 714.299 473.302 691.048 468.997L674.687 465.896C666.248 464.346 662.631 460.041 662.631 454.185C662.631 447.468 669.176 441.096 679.337 441.096C694.148 441.096 698.798 450.741 699.66 456.424L724.115 449.535Z"/>
<path d="M766.554 574.57L819.255 456.08H791.527L772.582 501.891L751.743 456.08H722.465L758.46 530.136L738.998 574.57H766.554Z"/>
<path d="M817.841 517.392C818.53 526.864 827.141 544.259 854.008 544.259C876.914 544.259 888.109 529.964 888.109 515.325C888.109 502.753 879.497 492.075 861.758 488.458L850.391 486.219C846.603 485.53 843.675 483.463 843.675 479.847C843.675 475.369 847.98 472.441 852.975 472.441C860.897 472.441 864.514 477.263 865.203 482.947L886.903 478.986C886.042 468.997 877.431 453.496 852.63 453.496C833.513 453.496 819.736 466.241 819.736 481.913C819.736 493.969 826.969 504.303 845.225 508.264L855.042 510.503C861.414 511.881 863.481 514.464 863.481 517.564C863.481 521.353 860.208 524.97 853.492 524.97C844.536 524.97 840.402 519.286 840.058 513.431L817.841 517.392Z"/>
<path d="M929.846 431.107H906.424V442.129C906.424 450.052 902.118 456.08 893.163 456.08H888.857V478.986H904.013V515.669C904.013 532.72 914.863 543.225 932.602 543.225C940.869 543.225 945.174 541.331 946.208 540.814V519.114C944.658 519.458 942.074 519.975 939.319 519.975C933.635 519.975 929.846 518.081 929.846 511.019V478.986H946.552V456.08H929.846V431.107Z"/>
<path d="M977.274 488.63C977.791 482.258 983.302 474.163 994.325 474.163C1006.72 474.163 1011.2 482.086 1011.55 488.63H977.274ZM1013.44 510.847C1011.03 517.564 1005.69 522.042 996.219 522.042C986.058 522.042 977.274 515.153 976.758 505.508H1036.35C1036.52 504.992 1036.86 501.03 1036.86 497.414C1036.86 469.858 1020.5 453.496 993.98 453.496C971.763 453.496 951.268 471.063 951.268 498.619C951.268 527.381 972.28 544.259 995.875 544.259C1017.58 544.259 1031.18 531.859 1035.31 517.047L1013.44 510.847Z"/>
<path d="M1073.22 541.675V492.419C1073.22 484.669 1078.22 477.608 1087.35 477.608C1096.82 477.608 1101.12 483.98 1101.12 492.075V541.675H1126.96V492.247C1126.96 484.669 1131.95 477.608 1141.25 477.608C1150.55 477.608 1154.86 483.98 1154.86 492.075V541.675H1180.18V486.219C1180.18 462.969 1164.68 453.496 1148.49 453.496C1136.95 453.496 1128.68 457.285 1121.96 466.93C1117.66 458.491 1108.87 453.496 1096.65 453.496C1087.35 453.496 1076.32 458.319 1072.02 465.896V456.08H1047.05V541.675H1073.22Z"/>
</mask>
<path d="M112.898 516.014V445.23H128.743C147.515 445.23 162.843 456.252 162.843 480.708C162.843 505.164 147.515 516.014 128.743 516.014H112.898ZM129.776 541.675C166.632 541.675 191.26 518.425 191.26 480.708C191.26 442.991 166.632 419.568 129.948 419.568H85.6865V541.675H129.776Z" fill="white" style="mix-blend-mode:darken"/>
<path d="M222.949 488.63C223.465 482.258 228.976 474.163 239.999 474.163C252.399 474.163 256.877 482.086 257.221 488.63H222.949ZM259.116 510.847C256.705 517.564 251.366 522.042 241.893 522.042C231.732 522.042 222.949 515.153 222.432 505.508H282.022C282.194 504.992 282.538 501.03 282.538 497.414C282.538 469.858 266.177 453.496 239.654 453.496C217.437 453.496 196.943 471.063 196.943 498.619C196.943 527.381 217.954 544.259 241.549 544.259C263.249 544.259 276.855 531.859 280.988 517.047L259.116 510.847Z" fill="white" style="mix-blend-mode:darken"/>
<path d="M285.659 517.392C286.348 526.864 294.959 544.259 321.826 544.259C344.732 544.259 355.926 529.964 355.926 515.325C355.926 502.753 347.315 492.075 329.576 488.458L318.209 486.219C314.42 485.53 311.492 483.463 311.492 479.847C311.492 475.369 315.798 472.441 320.793 472.441C328.715 472.441 332.332 477.263 333.02 482.947L354.721 478.986C353.86 468.997 345.248 453.496 320.448 453.496C301.331 453.496 287.553 466.241 287.553 481.913C287.553 493.969 294.787 504.303 313.042 508.264L322.859 510.503C329.232 511.881 331.298 514.464 331.298 517.564C331.298 521.353 328.026 524.97 321.309 524.97C312.353 524.97 308.22 519.286 307.876 513.431L285.659 517.392Z" fill="white" style="mix-blend-mode:darken"/>
<path d="M392.497 541.675V456.08H366.319V541.675H392.497ZM364.08 429.901C364.08 438.341 370.969 445.23 379.236 445.23C387.847 445.23 394.736 438.341 394.736 429.901C394.736 421.462 387.847 414.573 379.236 414.573C370.969 414.573 364.08 421.462 364.08 429.901Z" fill="white" style="mix-blend-mode:darken"/>
<path d="M402.776 546.498C405.187 561.826 420.859 576.982 445.488 576.982C477.521 576.982 491.299 555.626 491.299 530.997V456.08H466.327V465.208C463.916 460.73 456.51 454.53 442.56 454.53C419.137 454.53 402.776 473.819 402.776 496.38C402.776 520.147 419.826 538.059 442.56 538.059C454.96 538.059 462.366 533.064 465.466 528.414V532.375C465.466 547.876 457.371 554.248 444.282 554.248C434.465 554.248 427.576 548.22 425.854 539.953L402.776 546.498ZM447.382 515.325C436.876 515.325 428.954 508.092 428.954 496.38C428.954 484.669 437.565 477.436 447.382 477.436C457.199 477.436 465.638 484.669 465.638 496.38C465.638 508.092 458.06 515.325 447.382 515.325Z" fill="white" style="mix-blend-mode:darken"/>
<path d="M532.968 492.591C532.968 483.98 538.48 477.608 547.091 477.608C556.563 477.608 561.041 483.98 561.041 492.419V541.675H587.219V487.941C587.219 469.169 577.575 453.841 556.047 453.841C547.263 453.841 536.757 457.802 532.107 465.896V456.08H506.79V541.675H532.968V492.591Z" fill="white" style="mix-blend-mode:darken"/>
<path d="M724.115 449.535C721.532 435.24 709.993 416.985 679.509 416.985C656.087 416.985 635.764 433.174 635.764 456.252C635.764 474.336 648.337 488.113 669.004 492.075L685.709 495.175C693.804 496.725 698.798 501.203 698.798 507.403C698.798 514.981 692.254 520.147 681.576 520.147C664.87 520.147 657.292 510.331 656.259 499.136L631.286 505.164C633.008 522.386 647.475 544.259 681.232 544.259C710.338 544.259 726.354 524.797 726.354 505.68C726.354 488.286 714.299 473.302 691.048 468.997L674.687 465.896C666.248 464.346 662.631 460.041 662.631 454.185C662.631 447.468 669.176 441.096 679.337 441.096C694.148 441.096 698.798 450.741 699.66 456.424L724.115 449.535Z" fill="white" style="mix-blend-mode:darken"/>
<path d="M766.554 574.57L819.255 456.08H791.527L772.582 501.891L751.743 456.08H722.465L758.46 530.136L738.998 574.57H766.554Z" fill="white" style="mix-blend-mode:darken"/>
<path d="M817.841 517.392C818.53 526.864 827.141 544.259 854.008 544.259C876.914 544.259 888.109 529.964 888.109 515.325C888.109 502.753 879.497 492.075 861.758 488.458L850.391 486.219C846.603 485.53 843.675 483.463 843.675 479.847C843.675 475.369 847.98 472.441 852.975 472.441C860.897 472.441 864.514 477.263 865.203 482.947L886.903 478.986C886.042 468.997 877.431 453.496 852.63 453.496C833.513 453.496 819.736 466.241 819.736 481.913C819.736 493.969 826.969 504.303 845.225 508.264L855.042 510.503C861.414 511.881 863.481 514.464 863.481 517.564C863.481 521.353 860.208 524.97 853.492 524.97C844.536 524.97 840.402 519.286 840.058 513.431L817.841 517.392Z" fill="white" style="mix-blend-mode:darken"/>
<path d="M929.846 431.107H906.424V442.129C906.424 450.052 902.118 456.08 893.163 456.08H888.857V478.986H904.013V515.669C904.013 532.72 914.863 543.225 932.602 543.225C940.869 543.225 945.174 541.331 946.208 540.814V519.114C944.658 519.458 942.074 519.975 939.319 519.975C933.635 519.975 929.846 518.081 929.846 511.019V478.986H946.552V456.08H929.846V431.107Z" fill="white" style="mix-blend-mode:darken"/>
<path d="M977.274 488.63C977.791 482.258 983.302 474.163 994.325 474.163C1006.72 474.163 1011.2 482.086 1011.55 488.63H977.274ZM1013.44 510.847C1011.03 517.564 1005.69 522.042 996.219 522.042C986.058 522.042 977.274 515.153 976.758 505.508H1036.35C1036.52 504.992 1036.86 501.03 1036.86 497.414C1036.86 469.858 1020.5 453.496 993.98 453.496C971.763 453.496 951.268 471.063 951.268 498.619C951.268 527.381 972.28 544.259 995.875 544.259C1017.58 544.259 1031.18 531.859 1035.31 517.047L1013.44 510.847Z" fill="white" style="mix-blend-mode:darken"/>
<path d="M1073.22 541.675V492.419C1073.22 484.669 1078.22 477.608 1087.35 477.608C1096.82 477.608 1101.12 483.98 1101.12 492.075V541.675H1126.96V492.247C1126.96 484.669 1131.95 477.608 1141.25 477.608C1150.55 477.608 1154.86 483.98 1154.86 492.075V541.675H1180.18V486.219C1180.18 462.969 1164.68 453.496 1148.49 453.496C1136.95 453.496 1128.68 457.285 1121.96 466.93C1117.66 458.491 1108.87 453.496 1096.65 453.496C1087.35 453.496 1076.32 458.319 1072.02 465.896V456.08H1047.05V541.675H1073.22Z" fill="white" style="mix-blend-mode:darken"/>
<path d="M112.898 516.014V445.23H128.743C147.515 445.23 162.843 456.252 162.843 480.708C162.843 505.164 147.515 516.014 128.743 516.014H112.898ZM129.776 541.675C166.632 541.675 191.26 518.425 191.26 480.708C191.26 442.991 166.632 419.568 129.948 419.568H85.6865V541.675H129.776Z" stroke="url(#paint1_angular_571_138378)" stroke-width="6" mask="url(#path-3-inside-1_571_138378)"/>
<path d="M112.898 516.014V445.23H128.743C147.515 445.23 162.843 456.252 162.843 480.708C162.843 505.164 147.515 516.014 128.743 516.014H112.898ZM129.776 541.675C166.632 541.675 191.26 518.425 191.26 480.708C191.26 442.991 166.632 419.568 129.948 419.568H85.6865V541.675H129.776Z" stroke="white" stroke-opacity="0.2" stroke-width="6" mask="url(#path-3-inside-1_571_138378)"/>
<path d="M222.949 488.63C223.465 482.258 228.976 474.163 239.999 474.163C252.399 474.163 256.877 482.086 257.221 488.63H222.949ZM259.116 510.847C256.705 517.564 251.366 522.042 241.893 522.042C231.732 522.042 222.949 515.153 222.432 505.508H282.022C282.194 504.992 282.538 501.03 282.538 497.414C282.538 469.858 266.177 453.496 239.654 453.496C217.437 453.496 196.943 471.063 196.943 498.619C196.943 527.381 217.954 544.259 241.549 544.259C263.249 544.259 276.855 531.859 280.988 517.047L259.116 510.847Z" stroke="url(#paint2_angular_571_138378)" stroke-width="6" mask="url(#path-3-inside-1_571_138378)"/>
<path d="M222.949 488.63C223.465 482.258 228.976 474.163 239.999 474.163C252.399 474.163 256.877 482.086 257.221 488.63H222.949ZM259.116 510.847C256.705 517.564 251.366 522.042 241.893 522.042C231.732 522.042 222.949 515.153 222.432 505.508H282.022C282.194 504.992 282.538 501.03 282.538 497.414C282.538 469.858 266.177 453.496 239.654 453.496C217.437 453.496 196.943 471.063 196.943 498.619C196.943 527.381 217.954 544.259 241.549 544.259C263.249 544.259 276.855 531.859 280.988 517.047L259.116 510.847Z" stroke="white" stroke-opacity="0.2" stroke-width="6" mask="url(#path-3-inside-1_571_138378)"/>
<path d="M285.659 517.392C286.348 526.864 294.959 544.259 321.826 544.259C344.732 544.259 355.926 529.964 355.926 515.325C355.926 502.753 347.315 492.075 329.576 488.458L318.209 486.219C314.42 485.53 311.492 483.463 311.492 479.847C311.492 475.369 315.798 472.441 320.793 472.441C328.715 472.441 332.332 477.263 333.02 482.947L354.721 478.986C353.86 468.997 345.248 453.496 320.448 453.496C301.331 453.496 287.553 466.241 287.553 481.913C287.553 493.969 294.787 504.303 313.042 508.264L322.859 510.503C329.232 511.881 331.298 514.464 331.298 517.564C331.298 521.353 328.026 524.97 321.309 524.97C312.353 524.97 308.22 519.286 307.876 513.431L285.659 517.392Z" stroke="url(#paint3_angular_571_138378)" stroke-width="6" mask="url(#path-3-inside-1_571_138378)"/>
<path d="M285.659 517.392C286.348 526.864 294.959 544.259 321.826 544.259C344.732 544.259 355.926 529.964 355.926 515.325C355.926 502.753 347.315 492.075 329.576 488.458L318.209 486.219C314.42 485.53 311.492 483.463 311.492 479.847C311.492 475.369 315.798 472.441 320.793 472.441C328.715 472.441 332.332 477.263 333.02 482.947L354.721 478.986C353.86 468.997 345.248 453.496 320.448 453.496C301.331 453.496 287.553 466.241 287.553 481.913C287.553 493.969 294.787 504.303 313.042 508.264L322.859 510.503C329.232 511.881 331.298 514.464 331.298 517.564C331.298 521.353 328.026 524.97 321.309 524.97C312.353 524.97 308.22 519.286 307.876 513.431L285.659 517.392Z" stroke="white" stroke-opacity="0.2" stroke-width="6" mask="url(#path-3-inside-1_571_138378)"/>
<path d="M392.497 541.675V456.08H366.319V541.675H392.497ZM364.08 429.901C364.08 438.341 370.969 445.23 379.236 445.23C387.847 445.23 394.736 438.341 394.736 429.901C394.736 421.462 387.847 414.573 379.236 414.573C370.969 414.573 364.08 421.462 364.08 429.901Z" stroke="url(#paint4_angular_571_138378)" stroke-width="6" mask="url(#path-3-inside-1_571_138378)"/>
<path d="M392.497 541.675V456.08H366.319V541.675H392.497ZM364.08 429.901C364.08 438.341 370.969 445.23 379.236 445.23C387.847 445.23 394.736 438.341 394.736 429.901C394.736 421.462 387.847 414.573 379.236 414.573C370.969 414.573 364.08 421.462 364.08 429.901Z" stroke="white" stroke-opacity="0.2" stroke-width="6" mask="url(#path-3-inside-1_571_138378)"/>
<path d="M402.776 546.498C405.187 561.826 420.859 576.982 445.488 576.982C477.521 576.982 491.299 555.626 491.299 530.997V456.08H466.327V465.208C463.916 460.73 456.51 454.53 442.56 454.53C419.137 454.53 402.776 473.819 402.776 496.38C402.776 520.147 419.826 538.059 442.56 538.059C454.96 538.059 462.366 533.064 465.466 528.414V532.375C465.466 547.876 457.371 554.248 444.282 554.248C434.465 554.248 427.576 548.22 425.854 539.953L402.776 546.498ZM447.382 515.325C436.876 515.325 428.954 508.092 428.954 496.38C428.954 484.669 437.565 477.436 447.382 477.436C457.199 477.436 465.638 484.669 465.638 496.38C465.638 508.092 458.06 515.325 447.382 515.325Z" stroke="url(#paint5_angular_571_138378)" stroke-width="6" mask="url(#path-3-inside-1_571_138378)"/>
<path d="M402.776 546.498C405.187 561.826 420.859 576.982 445.488 576.982C477.521 576.982 491.299 555.626 491.299 530.997V456.08H466.327V465.208C463.916 460.73 456.51 454.53 442.56 454.53C419.137 454.53 402.776 473.819 402.776 496.38C402.776 520.147 419.826 538.059 442.56 538.059C454.96 538.059 462.366 533.064 465.466 528.414V532.375C465.466 547.876 457.371 554.248 444.282 554.248C434.465 554.248 427.576 548.22 425.854 539.953L402.776 546.498ZM447.382 515.325C436.876 515.325 428.954 508.092 428.954 496.38C428.954 484.669 437.565 477.436 447.382 477.436C457.199 477.436 465.638 484.669 465.638 496.38C465.638 508.092 458.06 515.325 447.382 515.325Z" stroke="white" stroke-opacity="0.2" stroke-width="6" mask="url(#path-3-inside-1_571_138378)"/>
<path d="M532.968 492.591C532.968 483.98 538.48 477.608 547.091 477.608C556.563 477.608 561.041 483.98 561.041 492.419V541.675H587.219V487.941C587.219 469.169 577.575 453.841 556.047 453.841C547.263 453.841 536.757 457.802 532.107 465.896V456.08H506.79V541.675H532.968V492.591Z" stroke="url(#paint6_angular_571_138378)" stroke-width="6" mask="url(#path-3-inside-1_571_138378)"/>
<path d="M532.968 492.591C532.968 483.98 538.48 477.608 547.091 477.608C556.563 477.608 561.041 483.98 561.041 492.419V541.675H587.219V487.941C587.219 469.169 577.575 453.841 556.047 453.841C547.263 453.841 536.757 457.802 532.107 465.896V456.08H506.79V541.675H532.968V492.591Z" stroke="white" stroke-opacity="0.2" stroke-width="6" mask="url(#path-3-inside-1_571_138378)"/>
<path d="M724.115 449.535C721.532 435.24 709.993 416.985 679.509 416.985C656.087 416.985 635.764 433.174 635.764 456.252C635.764 474.336 648.337 488.113 669.004 492.075L685.709 495.175C693.804 496.725 698.798 501.203 698.798 507.403C698.798 514.981 692.254 520.147 681.576 520.147C664.87 520.147 657.292 510.331 656.259 499.136L631.286 505.164C633.008 522.386 647.475 544.259 681.232 544.259C710.338 544.259 726.354 524.797 726.354 505.68C726.354 488.286 714.299 473.302 691.048 468.997L674.687 465.896C666.248 464.346 662.631 460.041 662.631 454.185C662.631 447.468 669.176 441.096 679.337 441.096C694.148 441.096 698.798 450.741 699.66 456.424L724.115 449.535Z" stroke="url(#paint7_angular_571_138378)" stroke-width="6" mask="url(#path-3-inside-1_571_138378)"/>
<path d="M724.115 449.535C721.532 435.24 709.993 416.985 679.509 416.985C656.087 416.985 635.764 433.174 635.764 456.252C635.764 474.336 648.337 488.113 669.004 492.075L685.709 495.175C693.804 496.725 698.798 501.203 698.798 507.403C698.798 514.981 692.254 520.147 681.576 520.147C664.87 520.147 657.292 510.331 656.259 499.136L631.286 505.164C633.008 522.386 647.475 544.259 681.232 544.259C710.338 544.259 726.354 524.797 726.354 505.68C726.354 488.286 714.299 473.302 691.048 468.997L674.687 465.896C666.248 464.346 662.631 460.041 662.631 454.185C662.631 447.468 669.176 441.096 679.337 441.096C694.148 441.096 698.798 450.741 699.66 456.424L724.115 449.535Z" stroke="white" stroke-opacity="0.2" stroke-width="6" mask="url(#path-3-inside-1_571_138378)"/>
<path d="M766.554 574.57L819.255 456.08H791.527L772.582 501.891L751.743 456.08H722.465L758.46 530.136L738.998 574.57H766.554Z" stroke="url(#paint8_angular_571_138378)" stroke-width="6" mask="url(#path-3-inside-1_571_138378)"/>
<path d="M766.554 574.57L819.255 456.08H791.527L772.582 501.891L751.743 456.08H722.465L758.46 530.136L738.998 574.57H766.554Z" stroke="white" stroke-opacity="0.2" stroke-width="6" mask="url(#path-3-inside-1_571_138378)"/>
<path d="M817.841 517.392C818.53 526.864 827.141 544.259 854.008 544.259C876.914 544.259 888.109 529.964 888.109 515.325C888.109 502.753 879.497 492.075 861.758 488.458L850.391 486.219C846.603 485.53 843.675 483.463 843.675 479.847C843.675 475.369 847.98 472.441 852.975 472.441C860.897 472.441 864.514 477.263 865.203 482.947L886.903 478.986C886.042 468.997 877.431 453.496 852.63 453.496C833.513 453.496 819.736 466.241 819.736 481.913C819.736 493.969 826.969 504.303 845.225 508.264L855.042 510.503C861.414 511.881 863.481 514.464 863.481 517.564C863.481 521.353 860.208 524.97 853.492 524.97C844.536 524.97 840.402 519.286 840.058 513.431L817.841 517.392Z" stroke="url(#paint9_angular_571_138378)" stroke-width="6" mask="url(#path-3-inside-1_571_138378)"/>
<path d="M817.841 517.392C818.53 526.864 827.141 544.259 854.008 544.259C876.914 544.259 888.109 529.964 888.109 515.325C888.109 502.753 879.497 492.075 861.758 488.458L850.391 486.219C846.603 485.53 843.675 483.463 843.675 479.847C843.675 475.369 847.98 472.441 852.975 472.441C860.897 472.441 864.514 477.263 865.203 482.947L886.903 478.986C886.042 468.997 877.431 453.496 852.63 453.496C833.513 453.496 819.736 466.241 819.736 481.913C819.736 493.969 826.969 504.303 845.225 508.264L855.042 510.503C861.414 511.881 863.481 514.464 863.481 517.564C863.481 521.353 860.208 524.97 853.492 524.97C844.536 524.97 840.402 519.286 840.058 513.431L817.841 517.392Z" stroke="white" stroke-opacity="0.2" stroke-width="6" mask="url(#path-3-inside-1_571_138378)"/>
<path d="M929.846 431.107H906.424V442.129C906.424 450.052 902.118 456.08 893.163 456.08H888.857V478.986H904.013V515.669C904.013 532.72 914.863 543.225 932.602 543.225C940.869 543.225 945.174 541.331 946.208 540.814V519.114C944.658 519.458 942.074 519.975 939.319 519.975C933.635 519.975 929.846 518.081 929.846 511.019V478.986H946.552V456.08H929.846V431.107Z" stroke="url(#paint10_angular_571_138378)" stroke-width="6" mask="url(#path-3-inside-1_571_138378)"/>
<path d="M929.846 431.107H906.424V442.129C906.424 450.052 902.118 456.08 893.163 456.08H888.857V478.986H904.013V515.669C904.013 532.72 914.863 543.225 932.602 543.225C940.869 543.225 945.174 541.331 946.208 540.814V519.114C944.658 519.458 942.074 519.975 939.319 519.975C933.635 519.975 929.846 518.081 929.846 511.019V478.986H946.552V456.08H929.846V431.107Z" stroke="white" stroke-opacity="0.2" stroke-width="6" mask="url(#path-3-inside-1_571_138378)"/>
<path d="M977.274 488.63C977.791 482.258 983.302 474.163 994.325 474.163C1006.72 474.163 1011.2 482.086 1011.55 488.63H977.274ZM1013.44 510.847C1011.03 517.564 1005.69 522.042 996.219 522.042C986.058 522.042 977.274 515.153 976.758 505.508H1036.35C1036.52 504.992 1036.86 501.03 1036.86 497.414C1036.86 469.858 1020.5 453.496 993.98 453.496C971.763 453.496 951.268 471.063 951.268 498.619C951.268 527.381 972.28 544.259 995.875 544.259C1017.58 544.259 1031.18 531.859 1035.31 517.047L1013.44 510.847Z" stroke="url(#paint11_angular_571_138378)" stroke-width="6" mask="url(#path-3-inside-1_571_138378)"/>
<path d="M977.274 488.63C977.791 482.258 983.302 474.163 994.325 474.163C1006.72 474.163 1011.2 482.086 1011.55 488.63H977.274ZM1013.44 510.847C1011.03 517.564 1005.69 522.042 996.219 522.042C986.058 522.042 977.274 515.153 976.758 505.508H1036.35C1036.52 504.992 1036.86 501.03 1036.86 497.414C1036.86 469.858 1020.5 453.496 993.98 453.496C971.763 453.496 951.268 471.063 951.268 498.619C951.268 527.381 972.28 544.259 995.875 544.259C1017.58 544.259 1031.18 531.859 1035.31 517.047L1013.44 510.847Z" stroke="white" stroke-opacity="0.2" stroke-width="6" mask="url(#path-3-inside-1_571_138378)"/>
<path d="M1073.22 541.675V492.419C1073.22 484.669 1078.22 477.608 1087.35 477.608C1096.82 477.608 1101.12 483.98 1101.12 492.075V541.675H1126.96V492.247C1126.96 484.669 1131.95 477.608 1141.25 477.608C1150.55 477.608 1154.86 483.98 1154.86 492.075V541.675H1180.18V486.219C1180.18 462.969 1164.68 453.496 1148.49 453.496C1136.95 453.496 1128.68 457.285 1121.96 466.93C1117.66 458.491 1108.87 453.496 1096.65 453.496C1087.35 453.496 1076.32 458.319 1072.02 465.896V456.08H1047.05V541.675H1073.22Z" stroke="url(#paint12_angular_571_138378)" stroke-width="6" mask="url(#path-3-inside-1_571_138378)"/>
<path d="M1073.22 541.675V492.419C1073.22 484.669 1078.22 477.608 1087.35 477.608C1096.82 477.608 1101.12 483.98 1101.12 492.075V541.675H1126.96V492.247C1126.96 484.669 1131.95 477.608 1141.25 477.608C1150.55 477.608 1154.86 483.98 1154.86 492.075V541.675H1180.18V486.219C1180.18 462.969 1164.68 453.496 1148.49 453.496C1136.95 453.496 1128.68 457.285 1121.96 466.93C1117.66 458.491 1108.87 453.496 1096.65 453.496C1087.35 453.496 1076.32 458.319 1072.02 465.896V456.08H1047.05V541.675H1073.22Z" stroke="white" stroke-opacity="0.2" stroke-width="6" mask="url(#path-3-inside-1_571_138378)"/>
<defs>
<filter id="filter0_dd_571_138378" x="0.176769" y="77.4693" width="1235.54" height="444.468" filterUnits="userSpaceOnUse" color-interpolation-filters="sRGB">
<feFlood flood-opacity="0" result="BackgroundImageFix"/>
<feColorMatrix in="SourceAlpha" type="matrix" values="0 0 0 0 0 0 0 0 0 0 0 0 0 0 0 0 0 0 127 0" result="hardAlpha"/>
<feOffset dx="-23" dy="49.8255"/>
<feGaussianBlur stdDeviation="31.7383"/>
<feComposite in2="hardAlpha" operator="out"/>
<feColorMatrix type="matrix" values="0 0 0 0 0 0 0 0 0 0 0 0 0 0 0 0 0 0 0.35 0"/>
<feBlend mode="normal" in2="BackgroundImageFix" result="effect1_dropShadow_571_138378"/>
<feColorMatrix in="SourceAlpha" type="matrix" values="0 0 0 0 0 0 0 0 0 0 0 0 0 0 0 0 0 0 127 0" result="hardAlpha"/>
<feOffset dx="5.5197" dy="110.025"/>
<feGaussianBlur stdDeviation="17.2491"/>
<feComposite in2="hardAlpha" operator="out"/>
<feColorMatrix type="matrix" values="0 0 0 0 0 0 0 0 0 0 0 0 0 0 0 0 0 0 0.03 0"/>
<feBlend mode="normal" in2="effect1_dropShadow_571_138378" result="effect2_dropShadow_571_138378"/>
<feBlend mode="normal" in="SourceGraphic" in2="effect2_dropShadow_571_138378" result="shape"/>
</filter>
<radialGradient id="paint0_angular_571_138378" cx="0" cy="0" r="1" gradientUnits="userSpaceOnUse" gradientTransform="translate(633.323 235.655) rotate(-28.7328) scale(606.616 1483.13)">
<stop stop-color="white"/>
<stop offset="0.00377168" stop-color="#B4B4B4"/>
</radialGradient>
<radialGradient id="paint1_angular_571_138378" cx="0" cy="0" r="1" gradientUnits="userSpaceOnUse" gradientTransform="translate(632.931 495.778) rotate(50.0059) scale(163.092 743.171)">
<stop stop-color="#E4E4E4"/>
<stop offset="1" stop-color="#B4B4B4"/>
</radialGradient>
<radialGradient id="paint2_angular_571_138378" cx="0" cy="0" r="1" gradientUnits="userSpaceOnUse" gradientTransform="translate(632.931 495.778) rotate(50.0059) scale(163.092 743.171)">
<stop stop-color="#E4E4E4"/>
<stop offset="1" stop-color="#B4B4B4"/>
</radialGradient>
<radialGradient id="paint3_angular_571_138378" cx="0" cy="0" r="1" gradientUnits="userSpaceOnUse" gradientTransform="translate(632.931 495.778) rotate(50.0059) scale(163.092 743.171)">
<stop stop-color="#E4E4E4"/>
<stop offset="1" stop-color="#B4B4B4"/>
</radialGradient>
<radialGradient id="paint4_angular_571_138378" cx="0" cy="0" r="1" gradientUnits="userSpaceOnUse" gradientTransform="translate(632.931 495.778) rotate(50.0059) scale(163.092 743.171)">
<stop stop-color="#E4E4E4"/>
<stop offset="1" stop-color="#B4B4B4"/>
</radialGradient>
<radialGradient id="paint5_angular_571_138378" cx="0" cy="0" r="1" gradientUnits="userSpaceOnUse" gradientTransform="translate(632.931 495.778) rotate(50.0059) scale(163.092 743.171)">
<stop stop-color="#E4E4E4"/>
<stop offset="1" stop-color="#B4B4B4"/>
</radialGradient>
<radialGradient id="paint6_angular_571_138378" cx="0" cy="0" r="1" gradientUnits="userSpaceOnUse" gradientTransform="translate(632.931 495.778) rotate(50.0059) scale(163.092 743.171)">
<stop stop-color="#E4E4E4"/>
<stop offset="1" stop-color="#B4B4B4"/>
</radialGradient>
<radialGradient id="paint7_angular_571_138378" cx="0" cy="0" r="1" gradientUnits="userSpaceOnUse" gradientTransform="translate(632.931 495.778) rotate(50.0059) scale(163.092 743.171)">
<stop stop-color="#E4E4E4"/>
<stop offset="1" stop-color="#B4B4B4"/>
</radialGradient>
<radialGradient id="paint8_angular_571_138378" cx="0" cy="0" r="1" gradientUnits="userSpaceOnUse" gradientTransform="translate(632.931 495.778) rotate(50.0059) scale(163.092 743.171)">
<stop stop-color="#E4E4E4"/>
<stop offset="1" stop-color="#B4B4B4"/>
</radialGradient>
<radialGradient id="paint9_angular_571_138378" cx="0" cy="0" r="1" gradientUnits="userSpaceOnUse" gradientTransform="translate(632.931 495.778) rotate(50.0059) scale(163.092 743.171)">
<stop stop-color="#E4E4E4"/>
<stop offset="1" stop-color="#B4B4B4"/>
</radialGradient>
<radialGradient id="paint10_angular_571_138378" cx="0" cy="0" r="1" gradientUnits="userSpaceOnUse" gradientTransform="translate(632.931 495.778) rotate(50.0059) scale(163.092 743.171)">
<stop stop-color="#E4E4E4"/>
<stop offset="1" stop-color="#B4B4B4"/>
</radialGradient>
<radialGradient id="paint11_angular_571_138378" cx="0" cy="0" r="1" gradientUnits="userSpaceOnUse" gradientTransform="translate(632.931 495.778) rotate(50.0059) scale(163.092 743.171)">
<stop stop-color="#E4E4E4"/>
<stop offset="1" stop-color="#B4B4B4"/>
</radialGradient>
<radialGradient id="paint12_angular_571_138378" cx="0" cy="0" r="1" gradientUnits="userSpaceOnUse" gradientTransform="translate(632.931 495.778) rotate(50.0059) scale(163.092 743.171)">
<stop stop-color="#E4E4E4"/>
<stop offset="1" stop-color="#B4B4B4"/>
</radialGradient>
</defs>
</svg>
