<svg width="804" height="347" viewBox="0 0 804 347" fill="none" xmlns="http://www.w3.org/2000/svg">
<path d="M73.9186 308.582V264.683H83.7451C95.3873 264.683 104.893 271.519 104.893 286.686C104.893 301.853 95.3873 308.582 83.7451 308.582H73.9186ZM84.3859 324.497C107.243 324.497 122.517 310.077 122.517 286.686C122.517 263.295 107.243 248.769 84.4928 248.769H57.0427V324.497H84.3859Z" fill="#949494"/>
<path d="M142.169 291.599C142.49 287.647 145.907 282.627 152.743 282.627C160.434 282.627 163.211 287.541 163.424 291.599H142.169ZM164.599 305.378C163.104 309.543 159.793 312.32 153.918 312.32C147.616 312.32 142.169 308.048 141.849 302.067H178.805C178.912 301.746 179.125 299.29 179.125 297.047C179.125 279.957 168.978 269.81 152.53 269.81C138.751 269.81 126.041 280.705 126.041 297.794C126.041 315.632 139.072 326.099 153.705 326.099C167.162 326.099 175.6 318.409 178.164 309.223L164.599 305.378Z" fill="#949494"/>
<path d="M181.06 309.437C181.488 315.311 186.828 326.099 203.49 326.099C217.696 326.099 224.639 317.234 224.639 308.155C224.639 300.358 219.298 293.736 208.297 291.493L201.247 290.104C198.897 289.677 197.082 288.395 197.082 286.152C197.082 283.375 199.752 281.559 202.849 281.559C207.763 281.559 210.006 284.55 210.433 288.075L223.891 285.618C223.357 279.423 218.016 269.81 202.636 269.81C190.78 269.81 182.235 277.714 182.235 287.434C182.235 294.911 186.721 301.319 198.043 303.776L204.131 305.164C208.083 306.019 209.365 307.621 209.365 309.543C209.365 311.893 207.335 314.136 203.17 314.136C197.616 314.136 195.052 310.612 194.839 306.98L181.06 309.437Z" fill="#949494"/>
<path d="M247.319 324.497V271.412H231.084V324.497H247.319ZM229.695 255.177C229.695 260.411 233.968 264.683 239.095 264.683C244.435 264.683 248.707 260.411 248.707 255.177C248.707 249.944 244.435 245.671 239.095 245.671C233.968 245.671 229.695 249.944 229.695 255.177Z" fill="#949494"/>
<path d="M253.693 327.487C255.189 336.993 264.908 346.393 280.182 346.393C300.049 346.393 308.593 333.148 308.593 317.875V271.412H293.106V277.073C291.611 274.296 287.018 270.451 278.366 270.451C263.84 270.451 253.693 282.414 253.693 296.406C253.693 311.146 264.268 322.254 278.366 322.254C286.057 322.254 290.649 319.156 292.572 316.272V318.729C292.572 328.342 287.552 332.294 279.434 332.294C273.346 332.294 269.074 328.556 268.006 323.429L253.693 327.487ZM281.357 308.155C274.842 308.155 269.928 303.669 269.928 296.406C269.928 289.143 275.269 284.657 281.357 284.657C287.445 284.657 292.679 289.143 292.679 296.406C292.679 303.669 287.979 308.155 281.357 308.155Z" fill="#949494"/>
<path d="M334.436 294.056C334.436 288.716 337.853 284.764 343.194 284.764C349.068 284.764 351.845 288.716 351.845 293.949V324.497H368.081V291.172C368.081 279.53 362.099 270.024 348.748 270.024C343.301 270.024 336.785 272.481 333.901 277.501V271.412H318.201V324.497H334.436V294.056Z" fill="#949494"/>
<path d="M452.98 267.354C451.378 258.489 444.222 247.167 425.316 247.167C410.79 247.167 398.187 257.207 398.187 271.519C398.187 282.734 405.984 291.279 418.801 293.736L429.161 295.658C434.182 296.619 437.279 299.397 437.279 303.242C437.279 307.941 433.22 311.146 426.598 311.146C416.238 311.146 411.538 305.057 410.897 298.115L395.41 301.853C396.478 312.534 405.45 326.099 426.384 326.099C444.435 326.099 454.369 314.029 454.369 302.174C454.369 291.386 446.892 282.093 432.473 279.423L422.326 277.501C417.092 276.539 414.849 273.869 414.849 270.238C414.849 266.072 418.908 262.12 425.21 262.12C434.395 262.12 437.279 268.101 437.813 271.626L452.98 267.354Z" fill="#949494"/>
<path d="M479.299 344.897L511.983 271.412H494.787L483.038 299.824L470.114 271.412H451.956L474.279 317.341L462.21 344.897H479.299Z" fill="#949494"/>
<path d="M511.106 309.437C511.533 315.311 516.874 326.099 533.536 326.099C547.742 326.099 554.684 317.234 554.684 308.155C554.684 300.358 549.344 293.736 538.343 291.493L531.293 290.104C528.943 289.677 527.128 288.395 527.128 286.152C527.128 283.375 529.798 281.559 532.895 281.559C537.809 281.559 540.052 284.55 540.479 288.075L553.937 285.618C553.403 279.423 548.062 269.81 532.682 269.81C520.826 269.81 512.281 277.714 512.281 287.434C512.281 294.911 516.767 301.319 528.089 303.776L534.177 305.164C538.129 306.019 539.411 307.621 539.411 309.543C539.411 311.893 537.381 314.136 533.216 314.136C527.662 314.136 525.098 310.612 524.885 306.98L511.106 309.437Z" fill="#949494"/>
<path d="M580.569 255.925H566.043V262.761C566.043 267.674 563.373 271.412 557.819 271.412H555.148V285.618H564.548V308.369C564.548 318.943 571.277 325.458 582.278 325.458C587.405 325.458 590.075 324.283 590.716 323.963V310.505C589.755 310.718 588.153 311.039 586.444 311.039C582.919 311.039 580.569 309.864 580.569 305.485V285.618H590.93V271.412H580.569V255.925Z" fill="#949494"/>
<path d="M609.983 291.599C610.303 287.647 613.721 282.627 620.557 282.627C628.247 282.627 631.024 287.541 631.238 291.599H609.983ZM632.413 305.378C630.917 309.543 627.606 312.32 621.732 312.32C615.43 312.32 609.983 308.048 609.662 302.067H646.618C646.725 301.746 646.939 299.29 646.939 297.047C646.939 279.957 636.792 269.81 620.343 269.81C606.565 269.81 593.854 280.705 593.854 297.794C593.854 315.632 606.885 326.099 621.518 326.099C634.976 326.099 643.414 318.409 645.977 309.223L632.413 305.378Z" fill="#949494"/>
<path d="M669.488 324.497V293.949C669.488 289.143 672.586 284.764 678.247 284.764C684.121 284.764 686.791 288.716 686.791 293.736V324.497H702.813V293.842C702.813 289.143 705.91 284.764 711.678 284.764C717.446 284.764 720.116 288.716 720.116 293.736V324.497H735.817V290.104C735.817 275.685 726.204 269.81 716.164 269.81C709.008 269.81 703.881 272.16 699.715 278.141C697.045 272.908 691.598 269.81 684.014 269.81C678.246 269.81 671.411 272.801 668.74 277.501V271.412H653.253V324.497H669.488Z" fill="#949494"/>
<path d="M225.992 203.876V4.82786H165.07L113.133 139.305L58.3874 4.82786H0.553955V203.876H42.6657V73.6103L94.6034 203.876H130.539L182.477 71.9258V203.876H225.992Z" fill="#949494"/>
<path d="M287.549 104.211C287.549 62.6613 317.308 43.8514 345.102 43.8514C372.615 43.8514 402.374 62.6613 402.374 104.211C402.374 145.762 372.615 164.291 345.102 164.291C317.308 164.291 287.549 145.762 287.549 104.211ZM241.507 104.492C241.507 167.379 288.953 208.087 345.102 208.087C400.97 208.087 448.416 167.379 448.416 104.492C448.416 41.3247 400.97 0.616699 345.102 0.616699C288.953 0.616699 241.507 41.3247 241.507 104.492Z" fill="#949494"/>
<path d="M500.079 120.775V203.876H544.436V120.775L614.342 4.82786H564.931L523.661 78.6637L482.953 4.82786H431.015L500.079 120.775Z" fill="#949494"/>
<path d="M643.056 104.211C643.056 62.6613 672.815 43.8514 700.609 43.8514C728.122 43.8514 757.881 62.6613 757.881 104.211C757.881 145.762 728.122 164.291 700.609 164.291C672.815 164.291 643.056 145.762 643.056 104.211ZM597.014 104.492C597.014 167.379 644.46 208.087 700.609 208.087C756.477 208.087 803.923 167.379 803.923 104.492C803.923 41.3247 756.477 0.616699 700.609 0.616699C644.46 0.616699 597.014 41.3247 597.014 104.492Z" fill="#949494"/>
</svg>
