<svg xmlns="http://www.w3.org/2000/svg" width="720" height="245" fill="none" viewBox="0 0 720 245">
  <g clip-path="url(#a)">
    <mask id="c" width="173" height="147" x="8" y="84" maskUnits="userSpaceOnUse" style="mask-type:alpha">
      <path fill="url(#b)" d="M8.477 84.377h171.667L98.398 230.006l-49.35-79.324-40.57-66.305Z"/>
    </mask>
    <g mask="url(#c)">
      <g filter="url(#d)" style="mix-blend-mode:hard-light">
        <path fill="url(#e)" fill-opacity=".3" d="M215.94 292.88c59.733-59.733 59.733-156.58 0-216.313-59.733-59.733-156.58-59.733-216.313 0-59.733 59.733-59.733 156.58 0 216.313 59.734 59.733 156.58 59.733 216.313 0Z"/>
        <path stroke="url(#f)" stroke-width="3" d="M215.94 292.88c59.733-59.733 59.733-156.58 0-216.313-59.733-59.733-156.58-59.733-216.313 0-59.733 59.733-59.733 156.58 0 216.313 59.734 59.733 156.58 59.733 216.313 0Z"/>
      </g>
      <path stroke="url(#g)" stroke-opacity=".3" d="M9.386 84.377h170.758L97.49 231.52l-50.864-83.26-37.24-63.883Z"/>
    </g>
  </g>
  <mask id="h" width="168" height="146" x="184" y="82" maskUnits="userSpaceOnUse" style="mask-type:alpha">
    <path fill="#D9D9D9" d="m309.727 82.257 42.085 72.361-42.085 72.663h-83.865l-41.782-72.663 41.782-72.36h83.865Z"/>
  </mask>
  <g mask="url(#h)">
    <g filter="url(#i)" style="mix-blend-mode:hard-light">
      <path fill="url(#j)" fill-opacity=".3" d="M396.216 293.051c59.733-59.733 59.733-156.58 0-216.313-59.733-59.733-156.579-59.733-216.313 0-59.733 59.733-59.733 156.58 0 216.313 59.734 59.733 156.58 59.733 216.313 0Z"/>
      <path stroke="url(#k)" stroke-width="3" d="M396.216 293.051c59.733-59.733 59.733-156.58 0-216.313-59.733-59.733-156.579-59.733-216.313 0-59.733 59.733-59.733 156.58 0 216.313 59.734 59.733 156.58 59.733 216.313 0Z"/>
    </g>
    <path stroke="url(#l)" stroke-opacity=".3" d="m309.727 82.257 42.085 72.361-42.085 72.663h-83.865l-41.782-72.663 41.782-72.36h83.865Z"/>
  </g>
  <mask id="n" width="153" height="151" x="374" y="82" maskUnits="userSpaceOnUse" style="mask-type:alpha">
    <path fill="url(#m)" d="M450.664 82.136h-.454c-41.619 0-75.358 33.739-75.358 75.358 0 41.619 33.739 75.358 75.358 75.358h.454c41.619 0 75.358-33.739 75.358-75.358 0-41.619-33.739-75.358-75.358-75.358Z"/>
  </mask>
  <g mask="url(#n)">
    <g filter="url(#o)" style="mix-blend-mode:hard-light">
      <path fill="url(#p)" fill-opacity=".3" d="M575.755 293.051c59.733-59.733 59.733-156.58 0-216.313-59.733-59.733-156.579-59.733-216.313 0-59.733 59.733-59.733 156.58 0 216.313 59.734 59.733 156.58 59.733 216.313 0Z"/>
      <path stroke="url(#q)" stroke-width="3" d="M575.755 293.051c59.733-59.733 59.733-156.58 0-216.313-59.733-59.733-156.579-59.733-216.313 0-59.733 59.733-59.733 156.58 0 216.313 59.734 59.733 156.58 59.733 216.313 0Z"/>
    </g>
    <path stroke="url(#r)" stroke-opacity=".3" d="M450.664 82.136h-.454c-41.619 0-75.358 33.739-75.358 75.358 0 41.619 33.739 75.358 75.358 75.358h.454c41.619 0 75.358-33.739 75.358-75.358 0-41.619-33.739-75.358-75.358-75.358Z"/>
  </g>
  <mask id="t" width="152" height="151" x="554" y="82" maskUnits="userSpaceOnUse" style="mask-type:alpha">
    <path fill="url(#s)" d="M554.361 82.257H705.44v150.474H554.361V82.257Z"/>
  </mask>
  <g mask="url(#t)">
    <g filter="url(#u)" style="mix-blend-mode:hard-light">
      <path fill="url(#v)" fill-opacity=".3" d="M755.294 293.051c59.733-59.733 59.733-156.58 0-216.313-59.733-59.733-156.579-59.733-216.313 0-59.733 59.733-59.733 156.58 0 216.313 59.734 59.733 156.58 59.733 216.313 0Z"/>
      <path stroke="url(#w)" stroke-width="3" d="M755.294 293.051c59.733-59.733 59.733-156.58 0-216.313-59.733-59.733-156.579-59.733-216.313 0-59.733 59.733-59.733 156.58 0 216.313 59.734 59.733 156.58 59.733 216.313 0Z"/>
    </g>
    <path stroke="url(#x)" stroke-opacity=".3" d="M554.361 82.257H705.44v150.474H554.361V82.257Z"/>
  </g>
  <g clip-path="url(#y)">
    <mask id="A" width="173" height="147" x="8" y="84" maskUnits="userSpaceOnUse" style="mask-type:alpha">
      <path fill="url(#z)" d="M8.477 84.377h171.667L98.398 230.006l-49.35-79.324-40.57-66.305Z"/>
    </mask>
    <g mask="url(#A)">
      <g filter="url(#B)" style="mix-blend-mode:hard-light">
        <path fill="url(#C)" fill-opacity=".3" d="M215.94 292.88c59.733-59.733 59.733-156.58 0-216.313-59.733-59.733-156.58-59.733-216.313 0-59.733 59.733-59.733 156.58 0 216.313 59.734 59.733 156.58 59.733 216.313 0Z"/>
        <path stroke="url(#D)" stroke-width="3" d="M215.94 292.88c59.733-59.733 59.733-156.58 0-216.313-59.733-59.733-156.58-59.733-216.313 0-59.733 59.733-59.733 156.58 0 216.313 59.734 59.733 156.58 59.733 216.313 0Z"/>
      </g>
      <path stroke="url(#E)" stroke-opacity=".3" d="M9.386 84.377h170.758L97.49 231.52l-50.864-83.26-37.24-63.883Z"/>
    </g>
  </g>
  <mask id="F" width="168" height="146" x="184" y="82" maskUnits="userSpaceOnUse" style="mask-type:alpha">
    <path fill="#D9D9D9" d="m309.727 82.257 42.085 72.361-42.085 72.663h-83.865l-41.782-72.663 41.782-72.36h83.865Z"/>
  </mask>
  <g mask="url(#F)">
    <g filter="url(#G)" style="mix-blend-mode:hard-light">
      <path fill="url(#H)" fill-opacity=".3" d="M396.216 293.051c59.733-59.733 59.733-156.58 0-216.313-59.733-59.733-156.579-59.733-216.313 0-59.733 59.733-59.733 156.58 0 216.313 59.734 59.733 156.58 59.733 216.313 0Z"/>
      <path stroke="url(#I)" stroke-width="3" d="M396.216 293.051c59.733-59.733 59.733-156.58 0-216.313-59.733-59.733-156.579-59.733-216.313 0-59.733 59.733-59.733 156.58 0 216.313 59.734 59.733 156.58 59.733 216.313 0Z"/>
    </g>
    <path stroke="url(#J)" stroke-opacity=".3" d="m309.727 82.257 42.085 72.361-42.085 72.663h-83.865l-41.782-72.663 41.782-72.36h83.865Z"/>
  </g>
  <mask id="L" width="153" height="151" x="374" y="82" maskUnits="userSpaceOnUse" style="mask-type:alpha">
    <path fill="url(#K)" d="M450.664 82.136h-.454c-41.619 0-75.358 33.739-75.358 75.358 0 41.619 33.739 75.358 75.358 75.358h.454c41.619 0 75.358-33.739 75.358-75.358 0-41.619-33.739-75.358-75.358-75.358Z"/>
  </mask>
  <g mask="url(#L)">
    <g filter="url(#M)" style="mix-blend-mode:hard-light">
      <path fill="url(#N)" fill-opacity=".3" d="M575.755 293.051c59.733-59.733 59.733-156.58 0-216.313-59.733-59.733-156.579-59.733-216.313 0-59.733 59.733-59.733 156.58 0 216.313 59.734 59.733 156.58 59.733 216.313 0Z"/>
      <path stroke="url(#O)" stroke-width="3" d="M575.755 293.051c59.733-59.733 59.733-156.58 0-216.313-59.733-59.733-156.579-59.733-216.313 0-59.733 59.733-59.733 156.58 0 216.313 59.734 59.733 156.58 59.733 216.313 0Z"/>
    </g>
    <path stroke="url(#P)" stroke-opacity=".3" d="M450.664 82.136h-.454c-41.619 0-75.358 33.739-75.358 75.358 0 41.619 33.739 75.358 75.358 75.358h.454c41.619 0 75.358-33.739 75.358-75.358 0-41.619-33.739-75.358-75.358-75.358Z"/>
  </g>
  <mask id="R" width="152" height="151" x="554" y="82" maskUnits="userSpaceOnUse" style="mask-type:alpha">
    <path fill="url(#Q)" d="M554.361 82.257H705.44v150.474H554.361V82.257Z"/>
  </mask>
  <g mask="url(#R)">
    <g filter="url(#S)" style="mix-blend-mode:hard-light">
      <path fill="url(#T)" fill-opacity=".3" d="M755.294 293.051c59.733-59.733 59.733-156.58 0-216.313-59.733-59.733-156.579-59.733-216.313 0-59.733 59.733-59.733 156.58 0 216.313 59.734 59.733 156.58 59.733 216.313 0Z"/>
      <path stroke="url(#U)" stroke-width="3" d="M755.294 293.051c59.733-59.733 59.733-156.58 0-216.313-59.733-59.733-156.579-59.733-216.313 0-59.733 59.733-59.733 156.58 0 216.313 59.734 59.733 156.58 59.733 216.313 0Z"/>
    </g>
    <path stroke="url(#V)" stroke-opacity=".3" d="M554.361 82.257H705.44v150.474H554.361V82.257Z"/>
  </g>
  <path fill="#732453" d="m282.468 7.72 9.145 30.132h2.804l7.808-26.259 7.808 26.259h2.804l9.189-30.133h-2.416l-8.153 27.076-7.938-27.076h-2.372l-8.153 27.076-8.067-27.076h-2.459Zm43.07 13.387c-.862 1.721-1.251 3.659-1.251 5.81 0 2.196.432 4.133 1.295 5.812.862 1.722 2.113 3.013 3.709 3.96 1.597.947 3.408 1.42 5.479 1.42 2.329 0 4.357-.688 6.039-2.065 1.683-1.378 2.804-3.186 3.322-5.424h-2.243c-.432 1.722-1.337 3.056-2.632 4.046-1.337.99-2.89 1.464-4.659 1.464-1.553 0-2.89-.345-4.098-1.076-1.208-.732-2.157-1.765-2.847-3.057-.69-1.291-1.078-2.798-1.078-4.52 0-.215 0-.387.043-.516h17.816c0-.172.043-.474.043-.904-.086-2.11-.561-3.96-1.423-5.51a8.99 8.99 0 0 0-3.538-3.53c-1.51-.818-3.235-1.248-5.133-1.248-1.985 0-3.71.473-5.263 1.42s-2.718 2.239-3.581 3.918Zm16.652 4.003h-15.444c.087-1.464.518-2.755 1.251-3.874a7.219 7.219 0 0 1 2.761-2.583c1.122-.603 2.33-.947 3.667-.947 2.157 0 3.969.646 5.349 1.937 1.38 1.291 2.2 3.142 2.416 5.467Zm23.618-7.964c-1.553-.904-3.322-1.377-5.306-1.377s-3.71.516-5.134 1.464c-1.466.99-2.545 2.28-3.235 3.874V7.719h-2.2v30.133h1.898l.345-4.95c.647 1.635 1.683 2.883 3.149 3.83 1.424.947 3.149 1.378 5.177 1.378 1.984 0 3.753-.474 5.306-1.42 1.553-.948 2.804-2.239 3.667-3.96.862-1.68 1.337-3.617 1.337-5.812 0-2.238-.475-4.176-1.337-5.898a9.368 9.368 0 0 0-3.667-3.874ZM364.6 34.968c-1.251.774-2.675 1.162-4.271 1.162-1.639 0-3.062-.388-4.314-1.162-1.251-.775-2.2-1.851-2.89-3.272-.69-1.377-1.035-3.013-1.035-4.821 0-1.722.345-3.315 1.035-4.692.69-1.378 1.639-2.497 2.89-3.272 1.252-.775 2.675-1.205 4.314-1.205 1.596 0 3.02.43 4.271 1.205 1.251.775 2.243 1.894 2.933 3.272.691 1.377 1.036 2.97 1.036 4.735 0 1.808-.345 3.4-1.036 4.778-.69 1.42-1.682 2.497-2.933 3.272Zm25.496-20.146c-1.165 2.324-1.726 4.993-1.726 7.963 0 3.014.561 5.683 1.726 8.007 1.121 2.325 2.76 4.133 4.917 5.424 2.114 1.291 4.573 1.894 7.377 1.894 3.192 0 5.867-.818 7.981-2.497 2.113-1.636 3.494-4.003 4.184-7.06h-2.329c-.648 2.411-1.812 4.262-3.538 5.51-1.725 1.292-3.839 1.895-6.427 1.895-2.33 0-4.314-.56-6.04-1.68-1.725-1.118-3.063-2.668-4.012-4.648-.949-1.98-1.423-4.262-1.423-6.845 0-2.54.474-4.82 1.423-6.8.949-1.981 2.287-3.574 4.012-4.693 1.726-1.12 3.71-1.679 6.04-1.679 2.502 0 4.659.646 6.427 1.937 1.726 1.292 2.934 3.1 3.581 5.424h2.329c-.647-3.013-2.027-5.338-4.184-7.016-2.157-1.636-4.832-2.497-8.024-2.497-2.804 0-5.263.646-7.377 1.937-2.157 1.291-3.796 3.1-4.917 5.424ZM424.56 36.69c1.553.946 3.365 1.42 5.436 1.42 2.027 0 3.839-.474 5.435-1.42a9.802 9.802 0 0 0 3.753-3.96c.863-1.68 1.337-3.617 1.337-5.812 0-2.152-.474-4.09-1.337-5.768-.906-1.68-2.157-3.014-3.753-3.96-1.596-.948-3.408-1.421-5.435-1.421-2.071 0-3.883.473-5.436 1.42a9.676 9.676 0 0 0-3.71 3.96c-.906 1.68-1.337 3.617-1.337 5.769 0 2.195.431 4.132 1.337 5.811.863 1.722 2.114 3.013 3.71 3.96Zm9.75-1.722c-1.295.774-2.718 1.162-4.314 1.162-1.64 0-3.063-.388-4.314-1.162-1.251-.775-2.2-1.851-2.89-3.272-.691-1.377-1.036-2.97-1.036-4.778 0-1.765.345-3.358 1.036-4.735.69-1.378 1.639-2.497 2.89-3.272 1.251-.775 2.674-1.205 4.314-1.205 1.596 0 3.019.43 4.314 1.205 1.251.775 2.243 1.894 2.933 3.272.69 1.377 1.035 2.97 1.035 4.735 0 1.808-.345 3.4-1.035 4.778-.69 1.42-1.682 2.497-2.933 3.272Zm41.931-16.788c-1.467-1.593-3.408-2.411-5.823-2.411-1.942 0-3.581.516-4.875 1.464-1.337.99-2.33 2.324-2.977 4.003-.517-1.765-1.423-3.1-2.674-4.047-1.294-.947-2.804-1.42-4.53-1.42-1.768 0-3.235.473-4.443 1.377-1.208.904-2.114 2.11-2.675 3.573l-.345-4.692h-1.898v21.825h2.157V26.746c0-2.67.604-4.864 1.855-6.5 1.208-1.636 2.89-2.454 4.961-2.454 1.941 0 3.451.689 4.53 1.98 1.078 1.335 1.639 3.229 1.639 5.725v12.355h2.2V25.97c.043-2.497.69-4.477 1.898-5.94 1.208-1.464 2.847-2.239 4.918-2.239 1.898 0 3.408.689 4.486 1.98 1.035 1.335 1.596 3.229 1.596 5.725v12.355h2.243V25.368c0-3.185-.776-5.553-2.243-7.188Zm24.028-1.034c-1.553-.904-3.322-1.377-5.306-1.377s-3.71.473-5.133 1.42a8.674 8.674 0 0 0-3.193 3.831l-.345-4.993h-1.898v30.434h2.2V32.815a7.656 7.656 0 0 0 3.106 3.874c1.467.947 3.192 1.42 5.263 1.42 1.984 0 3.753-.473 5.306-1.42s2.804-2.238 3.667-3.96c.863-1.679 1.337-3.616 1.337-5.811 0-2.238-.474-4.176-1.337-5.898a9.368 9.368 0 0 0-3.667-3.874Zm-1.208 17.822c-1.251.774-2.674 1.162-4.27 1.162-1.64 0-3.063-.388-4.314-1.162-1.251-.775-2.2-1.851-2.891-3.272-.69-1.377-1.035-3.013-1.035-4.821 0-1.722.345-3.315 1.035-4.692.691-1.378 1.64-2.497 2.891-3.272 1.251-.775 2.674-1.205 4.314-1.205a7.97 7.97 0 0 1 4.27 1.205c1.251.775 2.243 1.894 2.934 3.272.69 1.377 1.035 2.97 1.035 4.735 0 1.808-.345 3.4-1.035 4.778-.691 1.42-1.683 2.497-2.934 3.272Zm15.992 1.722c1.553.946 3.364 1.42 5.435 1.42 2.028 0 3.839-.474 5.436-1.42a9.802 9.802 0 0 0 3.753-3.96c.862-1.68 1.337-3.617 1.337-5.812 0-2.152-.475-4.09-1.337-5.768-.906-1.68-2.157-3.014-3.753-3.96-1.597-.948-3.408-1.421-5.436-1.421-2.071 0-3.882.473-5.435 1.42a9.676 9.676 0 0 0-3.71 3.96c-.906 1.68-1.338 3.617-1.338 5.769 0 2.195.432 4.132 1.338 5.811.863 1.722 2.114 3.013 3.71 3.96Zm9.749-1.722c-1.294.774-2.718 1.162-4.314 1.162-1.639 0-3.063-.388-4.314-1.162-1.251-.775-2.2-1.851-2.89-3.272-.69-1.377-1.035-2.97-1.035-4.778 0-1.765.345-3.358 1.035-4.735.69-1.378 1.639-2.497 2.89-3.272 1.251-.775 2.675-1.205 4.314-1.205 1.596 0 3.02.43 4.314 1.205 1.251.775 2.243 1.894 2.933 3.272.691 1.377 1.036 2.97 1.036 4.735 0 1.808-.345 3.4-1.036 4.778-.69 1.42-1.682 2.497-2.933 3.272Zm28.041-16.745c-1.553-1.636-3.667-2.454-6.255-2.454-1.941 0-3.58.473-4.875 1.334a8.28 8.28 0 0 0-2.976 3.573l-.345-4.649h-1.898v21.825h2.2V27.09c0-2.841.647-5.08 2.027-6.758 1.338-1.679 3.192-2.54 5.522-2.54 2.114 0 3.753.689 4.961 2.066 1.208 1.378 1.812 3.315 1.812 5.855v12.139h2.2V25.627c0-3.272-.82-5.769-2.373-7.404Zm8.786 2.884c-.863 1.721-1.251 3.659-1.251 5.81 0 2.196.431 4.133 1.294 5.812.863 1.722 2.114 3.013 3.71 3.96 1.596.947 3.408 1.42 5.478 1.42 2.33 0 4.357-.688 6.04-2.065 1.682-1.378 2.804-3.186 3.321-5.424h-2.243c-.431 1.722-1.337 3.056-2.631 4.046-1.338.99-2.891 1.464-4.659 1.464-1.553 0-2.891-.345-4.098-1.076-1.208-.732-2.157-1.765-2.848-3.057-.69-1.291-1.078-2.798-1.078-4.52 0-.215 0-.387.043-.516h17.816c0-.172.043-.474.043-.904-.086-2.11-.56-3.96-1.423-5.51a8.994 8.994 0 0 0-3.537-3.53c-1.51-.818-3.236-1.248-5.134-1.248-1.984 0-3.71.473-5.263 1.42s-2.718 2.239-3.58 3.918Zm16.651 4.003h-15.443c.086-1.464.517-2.755 1.251-3.874a7.216 7.216 0 0 1 2.76-2.583c1.122-.603 2.33-.947 3.667-.947 2.157 0 3.969.646 5.349 1.937 1.381 1.291 2.2 3.142 2.416 5.467Zm24.093-6.887c-1.553-1.636-3.667-2.454-6.255-2.454-1.942 0-3.581.473-4.875 1.334a8.29 8.29 0 0 0-2.977 3.573l-.345-4.649h-1.898v21.825h2.2V27.09c0-2.841.647-5.08 2.028-6.758 1.337-1.679 3.192-2.54 5.522-2.54 2.113 0 3.753.689 4.96 2.066 1.208 1.378 1.812 3.315 1.812 5.855v12.139h2.2V25.627c0-3.272-.819-5.769-2.372-7.404Zm9.734-.173v14.722c0 1.808.389 3.1 1.165 3.874.777.818 2.114 1.206 3.969 1.206h3.278v-2.023h-3.192c-1.121 0-1.898-.216-2.329-.69-.475-.473-.691-1.29-.691-2.41V18.05h5.824v-2.023h-5.824V9.915h-2.2v6.112h-4.141v2.023h4.141Zm13.874 13.086h-2.2c.043 2.239.906 3.96 2.589 5.166 1.639 1.205 3.882 1.808 6.643 1.808 2.372 0 4.357-.56 5.996-1.679 1.639-1.12 2.459-2.669 2.459-4.563 0-1.42-.388-2.54-1.165-3.4-.776-.818-1.725-1.421-2.933-1.808-1.208-.388-2.761-.732-4.616-.99-1.553-.173-2.718-.388-3.494-.603a4.35 4.35 0 0 1-2.071-1.076c-.561-.517-.819-1.249-.819-2.196 0-1.205.56-2.238 1.682-3.013 1.122-.775 2.588-1.162 4.4-1.162 1.726 0 3.192.43 4.357 1.248 1.165.818 1.855 1.937 2.071 3.315h2.2c-.216-2.066-1.122-3.66-2.675-4.778-1.553-1.12-3.58-1.68-6.082-1.68-1.553 0-2.977.302-4.185.819-1.208.516-2.2 1.248-2.89 2.195-.69.947-1.035 2.023-1.035 3.229 0 1.377.345 2.453 1.121 3.228.734.775 1.683 1.334 2.847 1.679 1.122.344 2.632.602 4.487.86 1.466.259 2.674.474 3.58.733.863.258 1.596.645 2.157 1.205.561.56.863 1.334.863 2.324 0 1.292-.604 2.282-1.769 3.057-1.208.774-2.674 1.162-4.486 1.162-2.071 0-3.753-.43-5.004-1.334-1.294-.904-1.941-2.153-2.028-3.746Z"/>
  <path fill="#000" fill-opacity=".91" d="M78 19.344h15.604L110.635 48h-15.61L78 19.344Zm24.726 15.31V0c9.567 0 17.327 7.76 17.327 17.327 0 9.567-7.76 17.327-17.327 17.327ZM128 8.669h10.597c2.198 0 4.131.417 5.8 1.252 1.697.834 3.004 2.016 3.922 3.546.918 1.53 1.377 3.296 1.377 5.299 0 2.03-.459 3.81-1.377 5.34-.918 1.53-2.225 2.712-3.922 3.546-1.669.835-3.602 1.252-5.8 1.252h-7.927v-4.506h7.635c2.031 0 3.589-.473 4.673-1.418 1.085-.946 1.627-2.337 1.627-4.173 0-1.808-.542-3.184-1.627-4.13-1.084-.946-2.642-1.419-4.673-1.419h-7.635l2.295-2.378v26.994H128V8.67Zm24.634 7.427h3.714l.918 4.756-1.21.083c.806-1.724 1.808-2.962 3.004-3.713 1.196-.751 2.823-1.127 4.881-1.127h2.17v4.381h-2.295c-1.975 0-3.546.584-4.715 1.753-1.14 1.168-1.71 3.06-1.71 5.674v9.971h-4.757V16.095Zm25.044 22.321c-2.281 0-4.325-.487-6.133-1.46-1.78-.974-3.171-2.323-4.172-4.047-1.002-1.725-1.502-3.7-1.502-5.925 0-2.225.5-4.2 1.502-5.925 1.001-1.724 2.392-3.073 4.172-4.047 1.808-.973 3.852-1.46 6.133-1.46 2.253 0 4.27.487 6.05 1.46 1.808.974 3.213 2.323 4.214 4.047 1.001 1.725 1.502 3.7 1.502 5.925 0 2.225-.501 4.2-1.502 5.925-1.001 1.724-2.406 3.073-4.214 4.047-1.78.973-3.797 1.46-6.05 1.46Zm0-4.34c1.363 0 2.573-.291 3.63-.875a6.296 6.296 0 0 0 2.503-2.545c.612-1.085.918-2.31.918-3.672 0-1.363-.306-2.587-.918-3.672a6.03 6.03 0 0 0-2.503-2.503c-1.057-.612-2.267-.918-3.63-.918-1.391 0-2.628.306-3.713.918a6.365 6.365 0 0 0-2.503 2.503c-.585 1.085-.877 2.309-.877 3.672s.292 2.587.877 3.672a6.66 6.66 0 0 0 2.503 2.545c1.085.584 2.322.876 3.713.876Zm24.584 4.34c-2.086 0-3.977-.487-5.674-1.46a10.564 10.564 0 0 1-3.964-4.09c-.945-1.724-1.418-3.685-1.418-5.882 0-2.197.473-4.158 1.418-5.883a10.272 10.272 0 0 1 3.964-4.047c1.697-1.001 3.588-1.502 5.674-1.502 2.114 0 4.005.5 5.674 1.502a10.272 10.272 0 0 1 3.964 4.047c.946 1.725 1.418 3.686 1.418 5.883s-.472 4.172-1.418 5.925a10.272 10.272 0 0 1-3.964 4.047c-1.669.973-3.56 1.46-5.674 1.46Zm.751-4.34c1.363 0 2.573-.291 3.63-.875a6.296 6.296 0 0 0 2.503-2.545c.612-1.085.918-2.31.918-3.672 0-1.363-.306-2.573-.918-3.63a6.295 6.295 0 0 0-2.503-2.545c-1.057-.612-2.267-.918-3.63-.918-1.391 0-2.628.306-3.713.918a6.67 6.67 0 0 0-2.504 2.545c-.584 1.057-.876 2.267-.876 3.63s.292 2.587.876 3.672a6.67 6.67 0 0 0 2.504 2.545c1.085.584 2.322.876 3.713.876Zm7.135.084 1.46-7.343-1.711-4.715V7h4.757v30.874h-3.755l-.751-3.713ZM219.634 7h4.757v30.874h-4.757V7Zm8.428 20.736 4.924-.918 6.842 11.056h-5.632l-6.134-10.138Zm-5.048-3.088h3.588c1.057 0 1.933-.11 2.629-.333a3.51 3.51 0 0 0 1.71-1.169c.473-.556.89-1.349 1.252-2.378l1.544-4.672h5.131l-2.294 6.383c-.584 1.585-1.308 2.865-2.17 3.838a7.425 7.425 0 0 1-3.087 2.087c-1.224.417-2.726.625-4.506.625h-3.797v-4.38Zm29.481 13.226c-2.586 0-4.589-.695-6.008-2.086-1.39-1.418-2.086-3.407-2.086-5.966V19.058l1.085 1.168h-5.466v-4.13h1.92c.778 0 1.376-.07 1.794-.21.417-.166.723-.43.918-.792.194-.39.347-.946.459-1.669l.375-2.837h3.672v6.634l-1.252-1.127h7.802v4.131h-7.594l1.044-1.127v10.264c0 1.419.319 2.462.959 3.13.64.667 1.613 1 2.921 1H256v4.381h-3.505Z"/>
  <defs>
    <linearGradient id="b" x1="94.25" x2="94.25" y1="84.256" y2="229.916" gradientUnits="userSpaceOnUse">
      <stop stop-color="#282828"/>
      <stop offset="1" stop-color="#282828" stop-opacity="0"/>
    </linearGradient>
    <linearGradient id="f" x1="-.373" x2="215.919" y1="76.567" y2="292.859" gradientUnits="userSpaceOnUse">
      <stop offset=".2" stop-color="#0FF"/>
      <stop offset=".4" stop-color="#709DE1"/>
      <stop offset="1" stop-color="#FF009D" stop-opacity="0"/>
    </linearGradient>
    <linearGradient id="g" x1="194.465" x2="81.08" y1="73.023" y2="187.741" gradientUnits="userSpaceOnUse">
      <stop offset=".4" stop-color="#0FF"/>
      <stop offset="1" stop-color="#FF009D" stop-opacity="0"/>
    </linearGradient>
    <linearGradient id="k" x1="179.903" x2="396.195" y1="76.738" y2="293.03" gradientUnits="userSpaceOnUse">
      <stop offset=".2" stop-color="#0FF"/>
      <stop offset=".4" stop-color="#709DE1"/>
      <stop offset="1" stop-color="#FF009D" stop-opacity="0"/>
    </linearGradient>
    <linearGradient id="l" x1="401.041" x2="234.43" y1="119.739" y2="152.438" gradientUnits="userSpaceOnUse">
      <stop offset=".4" stop-color="#0FF"/>
      <stop offset="1" stop-color="#FF009D" stop-opacity="0"/>
    </linearGradient>
    <linearGradient id="m" x1="450.452" x2="450.452" y1="82.136" y2="232.882" gradientUnits="userSpaceOnUse">
      <stop stop-color="#282828"/>
      <stop offset="1" stop-color="#282828" stop-opacity="0"/>
    </linearGradient>
    <linearGradient id="q" x1="359.442" x2="575.734" y1="76.738" y2="293.03" gradientUnits="userSpaceOnUse">
      <stop offset=".2" stop-color="#0FF"/>
      <stop offset=".4" stop-color="#709DE1"/>
      <stop offset="1" stop-color="#FF009D" stop-opacity="0"/>
    </linearGradient>
    <linearGradient id="r" x1="526.022" x2="438.099" y1="82.136" y2="162.187" gradientUnits="userSpaceOnUse">
      <stop offset=".4" stop-color="#0FF"/>
      <stop offset="1" stop-color="#FF009D" stop-opacity="0"/>
    </linearGradient>
    <linearGradient id="s" x1="629.991" x2="629.991" y1="82.136" y2="232.882" gradientUnits="userSpaceOnUse">
      <stop stop-color="#282828"/>
      <stop offset="1" stop-color="#282828" stop-opacity="0"/>
    </linearGradient>
    <linearGradient id="w" x1="538.981" x2="755.273" y1="76.738" y2="293.03" gradientUnits="userSpaceOnUse">
      <stop offset=".2" stop-color="#0FF"/>
      <stop offset=".4" stop-color="#709DE1"/>
      <stop offset="1" stop-color="#FF009D" stop-opacity="0"/>
    </linearGradient>
    <linearGradient id="x" x1="705.561" x2="617.638" y1="82.136" y2="162.187" gradientUnits="userSpaceOnUse">
      <stop offset=".4" stop-color="#0FF"/>
      <stop offset="1" stop-color="#FF009D" stop-opacity="0"/>
    </linearGradient>
    <linearGradient id="z" x1="94.25" x2="94.25" y1="84.256" y2="229.916" gradientUnits="userSpaceOnUse">
      <stop stop-color="#282828"/>
      <stop offset="1" stop-color="#282828" stop-opacity="0"/>
    </linearGradient>
    <linearGradient id="D" x1="-.373" x2="215.919" y1="76.567" y2="292.859" gradientUnits="userSpaceOnUse">
      <stop offset=".2" stop-color="#0FF"/>
      <stop offset=".4" stop-color="#709DE1"/>
      <stop offset="1" stop-color="#0FF"/>
    </linearGradient>
    <linearGradient id="E" x1="194.465" x2="81.08" y1="73.023" y2="187.741" gradientUnits="userSpaceOnUse">
      <stop offset=".4" stop-color="#0FF"/>
      <stop offset="1" stop-color="#FF009D" stop-opacity="0"/>
    </linearGradient>
    <linearGradient id="I" x1="179.903" x2="396.195" y1="76.738" y2="293.03" gradientUnits="userSpaceOnUse">
      <stop offset=".2" stop-color="#0FF"/>
      <stop offset=".4" stop-color="#709DE1"/>
      <stop offset="1" stop-color="#0FF"/>
    </linearGradient>
    <linearGradient id="J" x1="401.041" x2="234.43" y1="119.739" y2="152.438" gradientUnits="userSpaceOnUse">
      <stop offset=".4" stop-color="#0FF"/>
      <stop offset="1" stop-color="#FF009D" stop-opacity="0"/>
    </linearGradient>
    <linearGradient id="K" x1="450.452" x2="450.452" y1="82.136" y2="232.882" gradientUnits="userSpaceOnUse">
      <stop stop-color="#282828"/>
      <stop offset="1" stop-color="#282828" stop-opacity="0"/>
    </linearGradient>
    <linearGradient id="O" x1="359.442" x2="575.734" y1="76.738" y2="293.03" gradientUnits="userSpaceOnUse">
      <stop offset=".2" stop-color="#0FF"/>
      <stop offset=".4" stop-color="#709DE1"/>
      <stop offset="1" stop-color="#0FF"/>
    </linearGradient>
    <linearGradient id="P" x1="526.022" x2="438.099" y1="82.136" y2="162.187" gradientUnits="userSpaceOnUse">
      <stop offset=".4" stop-color="#0FF"/>
      <stop offset="1" stop-color="#70E1C8"/>
    </linearGradient>
    <linearGradient id="Q" x1="629.991" x2="629.991" y1="82.136" y2="232.882" gradientUnits="userSpaceOnUse">
      <stop stop-color="#282828"/>
      <stop offset="1" stop-color="#282828" stop-opacity="0"/>
    </linearGradient>
    <linearGradient id="U" x1="538.981" x2="755.273" y1="76.738" y2="293.03" gradientUnits="userSpaceOnUse">
      <stop offset=".2" stop-color="#0FF"/>
      <stop offset=".4" stop-color="#709DE1"/>
      <stop offset="1" stop-color="#0FF"/>
    </linearGradient>
    <linearGradient id="V" x1="705.561" x2="617.638" y1="82.136" y2="162.187" gradientUnits="userSpaceOnUse">
      <stop offset=".4" stop-color="#0FF"/>
      <stop offset="1" stop-color="#FF009D" stop-opacity="0"/>
    </linearGradient>
    <radialGradient id="e" cx="0" cy="0" r="1" gradientTransform="rotate(129 61.923 80.851) scale(186.868)" gradientUnits="userSpaceOnUse">
      <stop stop-color="#EF0384"/>
      <stop offset="1" stop-color="#C4C4C4" stop-opacity="0"/>
    </radialGradient>
    <radialGradient id="j" cx="0" cy="0" r="1" gradientTransform="rotate(128.853 129.458 128.737) scale(111.969 114.141)" gradientUnits="userSpaceOnUse">
      <stop stop-color="#EF0384"/>
      <stop offset="1" stop-color="#FF009D" stop-opacity="0"/>
    </radialGradient>
    <radialGradient id="p" cx="0" cy="0" r="1" gradientTransform="rotate(129 241.916 166.703) scale(186.868)" gradientUnits="userSpaceOnUse">
      <stop stop-color="#EF0384"/>
      <stop offset="1" stop-color="#C4C4C4" stop-opacity="0"/>
    </radialGradient>
    <radialGradient id="v" cx="0" cy="0" r="1" gradientTransform="rotate(119.952 316.21 246.376) scale(155.847 158.871)" gradientUnits="userSpaceOnUse">
      <stop stop-color="#EF0384"/>
      <stop offset="1" stop-color="#FF009D" stop-opacity="0"/>
    </radialGradient>
    <radialGradient id="C" cx="0" cy="0" r="1" gradientTransform="rotate(129 61.923 80.851) scale(186.868)" gradientUnits="userSpaceOnUse">
      <stop stop-color="#0FF"/>
      <stop offset="1" stop-color="#C4C4C4" stop-opacity="0"/>
    </radialGradient>
    <radialGradient id="H" cx="0" cy="0" r="1" gradientTransform="rotate(128.853 129.458 128.737) scale(111.969 114.141)" gradientUnits="userSpaceOnUse">
      <stop stop-color="#0FF"/>
      <stop offset="1" stop-color="#FF009D" stop-opacity="0"/>
    </radialGradient>
    <radialGradient id="N" cx="0" cy="0" r="1" gradientTransform="rotate(129 241.916 166.703) scale(186.868)" gradientUnits="userSpaceOnUse">
      <stop stop-color="#0FF"/>
      <stop offset="1" stop-color="#C4C4C4" stop-opacity="0"/>
    </radialGradient>
    <radialGradient id="T" cx="0" cy="0" r="1" gradientTransform="rotate(119.952 316.21 246.376) scale(155.847 158.871)" gradientUnits="userSpaceOnUse">
      <stop stop-color="#0FF"/>
      <stop offset="1" stop-color="#FF009D" stop-opacity="0"/>
    </radialGradient>
    <filter id="d" width="428.913" height="428.912" x="-106.672" y="-29.732" color-interpolation-filters="sRGB" filterUnits="userSpaceOnUse">
      <feFlood flood-opacity="0" result="BackgroundImageFix"/>
      <feBlend in="SourceGraphic" in2="BackgroundImageFix" result="shape"/>
      <feGaussianBlur result="effect1_foregroundBlur_226_2196" stdDeviation="30"/>
    </filter>
    <filter id="i" width="428.913" height="428.912" x="73.604" y="-29.561" color-interpolation-filters="sRGB" filterUnits="userSpaceOnUse">
      <feFlood flood-opacity="0" result="BackgroundImageFix"/>
      <feBlend in="SourceGraphic" in2="BackgroundImageFix" result="shape"/>
      <feGaussianBlur result="effect1_foregroundBlur_226_2196" stdDeviation="30"/>
    </filter>
    <filter id="o" width="428.913" height="428.912" x="253.143" y="-29.561" color-interpolation-filters="sRGB" filterUnits="userSpaceOnUse">
      <feFlood flood-opacity="0" result="BackgroundImageFix"/>
      <feBlend in="SourceGraphic" in2="BackgroundImageFix" result="shape"/>
      <feGaussianBlur result="effect1_foregroundBlur_226_2196" stdDeviation="30"/>
    </filter>
    <filter id="u" width="428.913" height="428.912" x="432.682" y="-29.561" color-interpolation-filters="sRGB" filterUnits="userSpaceOnUse">
      <feFlood flood-opacity="0" result="BackgroundImageFix"/>
      <feBlend in="SourceGraphic" in2="BackgroundImageFix" result="shape"/>
      <feGaussianBlur result="effect1_foregroundBlur_226_2196" stdDeviation="30"/>
    </filter>
    <filter id="B" width="428.913" height="428.912" x="-106.672" y="-29.732" color-interpolation-filters="sRGB" filterUnits="userSpaceOnUse">
      <feFlood flood-opacity="0" result="BackgroundImageFix"/>
      <feBlend in="SourceGraphic" in2="BackgroundImageFix" result="shape"/>
      <feGaussianBlur result="effect1_foregroundBlur_226_2196" stdDeviation="30"/>
    </filter>
    <filter id="G" width="428.913" height="428.912" x="73.604" y="-29.561" color-interpolation-filters="sRGB" filterUnits="userSpaceOnUse">
      <feFlood flood-opacity="0" result="BackgroundImageFix"/>
      <feBlend in="SourceGraphic" in2="BackgroundImageFix" result="shape"/>
      <feGaussianBlur result="effect1_foregroundBlur_226_2196" stdDeviation="30"/>
    </filter>
    <filter id="M" width="428.913" height="428.912" x="253.143" y="-29.561" color-interpolation-filters="sRGB" filterUnits="userSpaceOnUse">
      <feFlood flood-opacity="0" result="BackgroundImageFix"/>
      <feBlend in="SourceGraphic" in2="BackgroundImageFix" result="shape"/>
      <feGaussianBlur result="effect1_foregroundBlur_226_2196" stdDeviation="30"/>
    </filter>
    <filter id="S" width="428.913" height="428.912" x="432.682" y="-29.561" color-interpolation-filters="sRGB" filterUnits="userSpaceOnUse">
      <feFlood flood-opacity="0" result="BackgroundImageFix"/>
      <feBlend in="SourceGraphic" in2="BackgroundImageFix" result="shape"/>
      <feGaussianBlur result="effect1_foregroundBlur_226_2196" stdDeviation="30"/>
    </filter>
    <clipPath id="a">
      <path fill="#fff" d="M0 0h180.447v179.539H0z" transform="translate(0 65)"/>
    </clipPath>
    <clipPath id="y">
      <path fill="#fff" d="M0 0h180.447v179.539H0z" transform="translate(0 65)"/>
    </clipPath>
  </defs>
</svg>
